<svg width="28" height="25" viewBox="0 0 28 25" fill="none" xmlns="http://www.w3.org/2000/svg">
<path d="M0.666666 24.1667H3.33333C4.06667 24.1667 4.66667 23.5667 4.66667 22.8334V10.8334C4.66667 10.1 4.06667 9.50002 3.33333 9.50002H0.666666V24.1667ZM27.1067 14.6734C27.2533 14.34 27.3333 13.98 27.3333 13.6067V12.1667C27.3333 10.7 26.1333 9.50002 24.6667 9.50002H17.3333L18.56 3.30002C18.6267 3.00669 18.5867 2.68669 18.4533 2.42002C18.1467 1.82002 17.76 1.27335 17.28 0.793354L16.6667 0.166687L8.12 8.71335C7.61333 9.22002 7.33333 9.90002 7.33333 10.6067V21.06C7.33333 22.7667 8.73333 24.1667 10.4533 24.1667H21.2667C22.2 24.1667 23.08 23.6734 23.56 22.8734L27.1067 14.6734Z" fill="#219653"/>
</svg>
